<svg width="78" height="61" viewBox="0 0 78 61" fill="none" xmlns="http://www.w3.org/2000/svg">
<path d="M69.2221 31.5C69.2221 47.7924 55.7008 61 39.0214 61C22.342 61 8.82068 47.7924 8.82068 31.5C8.82068 15.2076 22.342 2 39.0214 2C55.7008 2 69.2221 15.2076 69.2221 31.5Z" fill="#8F0000"/>
<path d="M5.80582 27.0435C4.83056 28.0239 3.85263 28.9982 3.88097 28.9303C1.03754 31.2839 0.955197 32.7327 0.630646 35.6287C0.630646 35.6287 0.630646 42.068 4.11088 43.2838C4.502 43.8921 4.95862 44.5067 5.49303 45.1152C6.34638 46.0873 8.56344 47.1951 10.2517 47.6947C11.9397 48.1942 13.3077 48.5991 13.3077 48.5991C14.0407 48.7799 14.4463 48.5364 14.4463 48.5364L14.4663 23.7558C14.1444 23.5662 13.3643 23.5543 13.0462 23.5575L13.0275 23.3765C14.1003 11.7767 24.8835 3.35805 38.6721 3.35805C52.5762 3.35805 63.5845 12.1091 64.5645 23.5662C64.213 23.5831 63.7895 23.6284 63.5775 23.7558L63.597 48.5364C63.597 48.5364 64.0026 48.7791 64.7365 48.5991C64.7365 48.5991 66.1039 48.193 67.7916 47.6947C69.4804 47.1951 71.6996 46.0873 72.5495 45.1152C73.0852 44.5069 73.5408 43.8923 73.9324 43.2838C77.4129 42.068 77.4129 35.6287 77.4129 35.6287C77.0876 32.7327 77.006 31.2837 74.1626 28.9303C74.1888 28.9982 73.2114 28.0241 72.2369 27.0435C71.3676 26.1681 69.8365 25.1897 68.5188 24.6346C68.6115 24.1023 68.7653 23.128 68.8567 21.9073L68.8869 21.4802L68.005 21.3034C67.9109 20.2489 67.7601 19.3263 67.5454 18.4937L67.4582 18.506L67.5454 18.4891C67.5165 18.3796 67.4818 18.2738 67.4473 18.1664L67.3778 17.9527C67.2283 17.4349 67.0666 16.9193 66.8712 16.4132C66.8075 16.2405 66.73 16.074 66.6552 15.9059L66.5415 15.6491C66.3587 15.2333 66.1731 14.8187 65.963 14.4137C65.8478 14.1934 65.7235 13.9781 65.5989 13.7643L65.52 13.6246C65.2984 13.2443 65.0714 12.8678 64.8263 12.4983C64.656 12.2415 64.4761 11.9871 64.2935 11.7332C64.0304 11.3736 63.7561 11.0199 63.4682 10.6726C63.272 10.4317 63.0752 10.1937 62.8675 9.95896C62.5547 9.60946 62.224 9.2689 61.8874 8.93072L61.7184 8.76282C61.5677 8.60921 61.4139 8.45659 61.2535 8.30595C60.8616 7.93959 60.4451 7.5901 60.0216 7.24497L59.8155 7.06814C59.7003 6.9695 59.5856 6.87027 59.464 6.77679C58.7937 6.25939 58.1545 5.80253 57.5065 5.38377C57.4512 5.34884 57.3958 5.3159 57.2533 5.23314C56.6235 4.83204 55.9907 4.4629 55.3763 4.13107C55.2117 4.04275 55.044 3.96099 54.8751 3.88081L54.6176 3.75558C54.1193 3.50531 53.6207 3.26219 53.1031 3.03356C52.8524 2.9252 52.5979 2.8224 52.3418 2.72118L52.1838 2.65688C51.6937 2.45901 51.1994 2.27107 50.6971 2.09642C50.3634 1.98131 50.0269 1.87176 49.6865 1.76439C49.181 1.60661 48.6674 1.46074 48.1499 1.32459C47.8039 1.23211 47.4548 1.14359 47.1019 1.06361C46.5635 0.938779 46.0154 0.833395 45.4644 0.733766L45.2511 0.694669C44.9781 0.64287 44.7028 0.593452 44.4231 0.550187C43.8128 0.457703 43.1939 0.390424 42.5683 0.328304L42.2333 0.291192C42.0435 0.26817 41.8553 0.248125 41.6658 0.233637C39.6383 0.084194 37.9856 0.0841939 35.9867 0.23582C35.7768 0.25011 35.5686 0.274322 35.3616 0.298932L35.0245 0.335449C34.423 0.397568 33.8223 0.460878 33.2325 0.549195C32.9238 0.596429 32.6198 0.654579 32.3182 0.708958L31.975 0.774252C31.5133 0.860783 31.055 0.946916 30.6032 1.05032C30.1325 1.15768 29.6716 1.28053 29.2069 1.40378C28.8527 1.50242 28.4982 1.59947 28.1493 1.70584C27.5965 1.87434 27.0551 2.05732 26.5137 2.25102C26.3164 2.32227 26.1234 2.39491 25.9339 2.46894C16.4617 6.07205 10.1584 13.2836 9.38871 21.3549L8.7733 21.476L8.80725 21.9031C8.90884 23.2489 9.08609 24.2992 9.17885 24.7836C7.94267 25.3603 6.59982 26.2461 5.80582 27.0435Z" fill="black"/>
</svg>
