<svg width="43" height="43" viewBox="0 0 43 43" fill="none" xmlns="http://www.w3.org/2000/svg">
<circle cx="21.5" cy="21.5" r="21.5" fill="black"/>
<path d="M33.6034 15.9345C33.4523 16.1152 33.3172 16.3128 33.1834 16.5116C33.1793 16.5116 33.1762 16.5093 33.1719 16.5097C26.7691 16.9916 20.4009 16.437 14.0006 16.7028C13.9675 16.7042 13.9478 16.723 13.9262 16.7392C13.2202 15.0982 12.462 13.4939 11.5986 11.9719C10.87 10.6876 6.65477 10.705 6.01393 11.8532C5.96838 11.9348 6.04265 12.0204 6.11982 12.0036C6.94648 11.8225 7.80374 11.9642 8.62968 11.8358C11.5264 11.3858 12.1675 14.1729 13.0664 16.2228C14.7544 20.0725 16.1699 24.0602 17.6951 27.9878C17.6324 28.1374 17.7573 28.3682 17.9494 28.2571C18.0496 28.2379 18.1497 28.2186 18.2499 28.1995C18.2527 28.1996 18.2483 28.1963 18.2499 28.195C18.2773 28.1942 18.2975 28.187 18.3214 28.184C21.2858 28.5135 24.6005 28.5627 27.6381 28.3259C27.6793 28.3228 27.7131 28.3095 27.7424 28.2916C27.7659 28.2908 27.789 28.2842 27.8068 28.2645C30.9182 24.8375 31.4952 20.0247 33.9621 16.2363C34.1133 16.0041 33.7768 15.7276 33.6034 15.9345ZM27.6778 27.8457C27.6643 27.8424 27.6532 27.8357 27.6381 27.8346C24.582 27.5966 21.2395 27.548 18.172 27.8511C17.9769 27.3438 17.7875 26.8237 17.5954 26.31C19.2437 26.9933 21.784 26.6174 23.5422 26.6709C25.0689 26.7174 26.6353 26.7763 28.1585 26.5666C27.9299 26.9902 27.7549 27.4171 27.6778 27.8457ZM28.4764 26.0295C24.84 26.2084 21.1352 25.7682 17.5213 26.112C17.3058 25.5341 17.0878 24.9621 16.8734 24.3801C21.0704 24.866 25.3832 24.6393 29.5907 24.4317C29.2198 24.9556 28.8193 25.4895 28.4764 26.0295ZM30.5244 22.8787C30.3613 23.2591 30.1265 23.647 29.861 24.0412C29.8275 24.001 29.7787 23.9729 29.7132 23.9709C25.3953 23.817 21.0812 24.2446 16.7578 24.0671C16.5265 23.4386 16.2959 22.8107 16.0622 22.181C18.2306 22.5596 20.624 22.2011 22.7958 22.0974C25.4739 21.9695 28.1845 22.2752 30.8538 22.0528C30.7475 22.3349 30.6388 22.6122 30.5244 22.8787ZM31.0151 21.6123C31.0089 21.6117 31.0045 21.6086 30.998 21.6085C26.1799 21.5031 20.7274 20.8922 15.962 21.9102C15.6277 21.0125 15.2898 20.1157 14.9397 19.225C16.7878 19.955 19.3526 19.5886 21.2269 19.5185C24.7034 19.3884 28.1813 19.6969 31.6565 19.7947C31.4376 20.406 31.2293 21.0182 31.0151 21.6123ZM31.8314 19.3164C28.3145 19.0582 24.7502 18.8741 21.227 18.984C19.7879 19.0288 18.3597 19.1323 16.9215 19.0226C16.2759 18.9734 15.4778 18.7378 14.8679 19.0474C14.601 18.372 14.3345 17.6962 14.0519 17.0309C20.2177 17.3519 26.7069 17.9901 32.8505 17.0527C32.4513 17.752 32.1269 18.5253 31.8314 19.3164Z" fill="white"/>
<path d="M18.4477 29.6586C18.4324 29.6581 18.4214 29.6641 18.4076 29.6663C15.9629 28.8037 14.6631 33.5677 17.2711 34.564C18.7125 35.1147 20.3255 34.2032 20.7017 32.6063C21.093 30.9456 19.8944 29.7027 18.4477 29.6586ZM20.2465 32.4696C19.9934 33.8957 18.5602 34.4195 17.396 34.0701C16.3837 33.7664 16.1151 32.5599 16.3438 31.5721C16.5847 30.5317 17.3412 29.9851 18.2394 30.0062C18.2691 30.0934 18.3379 30.1643 18.4477 30.1681C19.6442 30.2104 20.4831 31.1366 20.2465 32.4696Z" fill="white"/>
<path d="M28.1322 29.4474C28.1097 29.4499 28.0923 29.4592 28.0733 29.4665C25.7221 28.759 24.5622 34.5608 28.0334 34.9122C29.5928 35.0701 30.8597 33.8618 30.9115 32.1718C30.964 30.4563 29.6306 29.2935 28.1322 29.4474ZM28.236 34.4101C25.6107 34.4911 25.6799 30.0804 27.9355 29.8285C27.9668 29.9034 28.0302 29.9577 28.132 29.948C31.0618 29.6664 31.16 34.3197 28.236 34.4101Z" fill="white"/>
</svg>
